<?xml version="1.0" encoding="UTF-8"?>
<!DOCTYPE svg PUBLIC "-//W3C//DTD SVG 1.1//EN" "http://www.w3.org/Graphics/SVG/1.1/DTD/svg11.dtd">
<!-- Creator: CorelDRAW X7 -->
<svg xmlns="http://www.w3.org/2000/svg" xml:space="preserve" width="100%" height="100%" version="1.1" style="shape-rendering:geometricPrecision; text-rendering:geometricPrecision; image-rendering:optimizeQuality; fill-rule:evenodd; clip-rule:evenodd"
viewBox="0 0 47108 8344"
 xmlns:xlink="http://www.w3.org/1999/xlink">
 <defs>
  <style type="text/css">
   <![CDATA[
    .fil0 {fill:#373435}
    .fil1 {fill:#4B4B4D;fill-rule:nonzero}
    .fil2 {fill:#4B4B4D;fill-rule:nonzero}
   ]]>
  </style>
 </defs>
 <g id="Layer_x0020_1">
  <metadata id="CorelCorpID_0Corel-Layer"/>
  <path class="fil0" d="M2992 4514l0 2053 -714 0 0 -2742 4062 0 0 332c0,197 -160,357 -357,357l-2991 0zm-357 -2737l7412 0 0 333c0,197 -160,357 -357,357l-7412 0 0 -332c0,-197 160,-358 357,-358z"/>
  <path class="fil1" d="M2330 6514l610 0 0 -2053 3043 0c167,0 304,-135 304,-304l0 -280 -3957 0 0 2637zm305 -4684c-168,0 -305,137 -305,305l0 280 7360 0c168,0 305,-137 305,-305l0 -280 -7360 0z"/>
  <path class="fil0" d="M10839 3810l1 0 0 2214 -1 0 0 180c0,205 -166,372 -371,372l-7327 0 0 -347c0,-205 167,-372 372,-372l6576 0 0 -1329 -3340 0 0 -346c0,-205 166,-371 371,-371l2969 0 0 -1 8 0 0 -2047 742 0 0 2047z"/>
  <path class="fil1" d="M10773 1830l-610 0 0 2047 -8 0 0 1 -3035 0c-168,0 -304,135 -304,304l0 279 3339 0 0 1463 -6642 0c-168,0 -305,137 -305,305l0 280 7260 0c168,0 305,-137 305,-305l0 -247 0 0 0 -2080 0 0 0 -2047z"/>
  <g id="_1934156170384">
   <path class="fil0" d="M26374 5972l-5 0 -7 0c-258,-4 -517,-1 -775,-1l-899 0 0 -493c0,-281 228,-510 509,-510l1170 0c447,0 809,-361 809,-808 0,-447 -362,-810 -809,-810 -390,0 -780,0 -1170,0 -281,0 -509,-228 -509,-509l0 -493 1654 0c1012,-13 1837,800 1837,1811 0,999 -807,1809 -1805,1813zm-13812 -1312l0 1311 -1019 0 0 -2313 3162 0 0 493c0,281 -228,509 -509,509l-1634 0zm-509 -2312l2914 0 0 493c0,281 -228,509 -509,509l-2915 0 0 -493c0,-281 229,-509 510,-509zm7463 1827c0,10 0,21 0,31 0,827 -560,1549 -1359,1755l-391 101 -2 -637c-1,-209 116,-402 303,-496 274,-137 447,-416 447,-723 0,-515 0,-1030 0,-1544l0 -314 1002 0 0 1827zm-3623 6l0 -1833 1003 0 0 1858c0,307 172,586 446,723 187,95 303,287 303,496l-2 637 -392 -101c-799,-206 -1359,-928 -1359,-1755 0,-8 1,-17 1,-25zm5566 -73l0 43c0,281 -228,509 -509,509l-509 0 0 -2312 336 0c144,0 289,0 434,0l158 0 1384 1864 0 -1355c0,-281 228,-509 509,-509l509 0 0 3623 -314 0c-152,0 -305,0 -457,0l-158 0 -1383 -1863zm10574 552l0 1311 -1018 0 0 -2313 3161 0 0 493c0,281 -228,509 -509,509l-1634 0zm-509 -2312l2914 0 0 493c0,281 -228,509 -509,509l-2914 0 0 -493c0,-281 228,-509 509,-509zm4349 0c281,0 509,228 509,509l0 3114 -509 0c-281,0 -510,-228 -510,-509l0 -3114 510 0zm4374 2138l757 1485 -513 0c-89,0 -179,0 -268,0 -218,0 -418,-122 -516,-316l-507 -995 -879 0 0 799c0,282 -229,511 -511,511l-507 0 0 -2312 2018 0 0 -2 314 0c85,0 153,-68 153,-152 0,-84 -68,-153 -153,-153l-314 0 0 -1 -1507 0c-282,0 -511,-229 -511,-511l0 -491 2303 0c10,-1 19,-1 29,-1 639,0 1158,518 1158,1157 0,409 -215,776 -546,982zm3835 -543l-432 456c-158,167 -378,261 -608,261 -69,0 -137,0 -206,0l-134 0 -93 -97c-380,-400 -758,-800 -1137,-1200l-476 -502 0 -513 314 0c68,0 137,0 205,0 230,0 451,94 609,261l928 980 928 -980c158,-167 378,-261 609,-261 68,0 136,0 204,0l315 0 -9 3623 -508 0c-281,0 -509,-228 -509,-509l0 -1519z"/>
   <path class="fil2" d="M11858 5657l390 0 0 -1311 1948 0c107,0 195,-87 195,-195l0 -179 -2533 0 0 1685zm195 -2995c-108,0 -195,87 -195,195l0 179 2600 0c107,0 195,-87 195,-195l0 -179 -2600 0zm7149 1523l0 -1523 -374 0c0,0 0,1544 0,1544l0 0c0,439 -252,819 -620,1004 -80,40 -130,124 -130,214l1 233c646,-167 1123,-753 1123,-1451 0,-7 0,-14 0,-21zm-2002 1025c-367,-185 -618,-565 -618,-1004 0,0 0,0 0,0l0 -1544 -375 0 0 1523c0,7 -1,14 -1,21 0,698 478,1284 1124,1451l1 -233c0,-90 -50,-174 -131,-214zm6062 -2548c-107,0 -195,87 -195,195l0 2306 -1856 -2501c-23,0 -308,0 -434,0l-22 0 0 1684 195 0c108,0 195,-87 195,-195l0 -993 1855 2499c23,0 457,0 457,0l0 -2995 -195 0zm3084 0l-1344 0 0 179c0,108 88,195 195,195 378,0 1170,0 1170,0 0,0 0,0 0,0l0 0 0 0c620,0 1123,503 1123,1124 0,620 -503,1123 -1123,1123l-1170 0c-107,0 -195,87 -195,195l0 179 585 0 0 0c793,0 781,1 780,1 827,0 1498,-671 1498,-1499 0,-826 -672,-1508 -1519,-1497zm4983 2995l390 0 0 -1311 1948 0c107,0 195,-87 195,-195l0 -179 -2533 0 0 1685zm195 -2995c-108,0 -195,87 -195,195l0 179 2600 0c107,0 195,-87 195,-195l0 -179 -2600 0zm4349 0l-195 0 0 2800c0,107 87,195 195,195l195 0 0 -2800c0,-108 -88,-195 -195,-195zm3940 1666c381,-82 665,-420 665,-824 0,-466 -377,-843 -843,-843 -9,0 -18,1 -27,1l-1991 0 0 177c0,109 88,197 197,197l1821 0 0 1c258,0 468,209 468,467 0,258 -210,466 -468,466l0 2 -2018 0 0 1684 193 0c109,0 197,-88 197,-197l0 -1113 1386 0 593 1166c46,89 137,145 237,145 94,0 176,0 268,0l-678 -1329zm4776 -1666c-145,0 -282,59 -381,163l-1156 1221 -1156 -1221c-99,-104 -237,-163 -381,-163 -69,0 -135,0 -205,0l0 0 0 74 0 0 0 0 0 0 390 411c0,0 1136,1199 1136,1199 55,0 131,0 206,0 143,0 281,-59 380,-164l974 -1027 0 2307c0,107 87,195 195,195l195 0 7 -2995c-70,0 -135,0 -204,0z"/>
  </g>
 </g>
</svg>
