<?xml version="1.0" encoding="UTF-8"?>
<!DOCTYPE svg PUBLIC "-//W3C//DTD SVG 1.1//EN" "http://www.w3.org/Graphics/SVG/1.1/DTD/svg11.dtd">
<!-- Creator: CorelDRAW X7 -->
<svg xmlns="http://www.w3.org/2000/svg" xml:space="preserve" width="100%" height="100%" version="1.1" style="shape-rendering:geometricPrecision; text-rendering:geometricPrecision; image-rendering:optimizeQuality; fill-rule:evenodd; clip-rule:evenodd"
viewBox="0 0 47108 8344"
 xmlns:xlink="http://www.w3.org/1999/xlink">
 <defs>
  <style type="text/css">
   <![CDATA[
    .fil1 {fill:#4B4B4D;fill-rule:nonzero}
    .fil0 {fill:#4B4B4D;fill-rule:nonzero}
   ]]>
  </style>
 </defs>
 <g id="Layer_x0020_1">
  <metadata id="CorelCorpID_0Corel-Layer"/>
  <path class="fil0" d="M11858 5657l390 0 0 -1311 1948 0c107,0 195,-87 195,-195l0 -179 -2533 0 0 1685zm195 -2995c-108,0 -195,87 -195,195l0 179 2600 0c107,0 195,-87 195,-195l0 -179 -2600 0zm7149 1523l0 -1523 -374 0c0,0 0,1544 0,1544l0 0c0,439 -252,819 -620,1004 -80,40 -130,124 -130,214l1 233c646,-167 1123,-753 1123,-1451 0,-7 0,-14 0,-21zm-2002 1025c-367,-185 -618,-565 -618,-1004 0,0 0,0 0,0l0 -1544 -375 0 0 1523c0,7 -1,14 -1,21 0,698 478,1284 1124,1451l1 -233c0,-90 -50,-174 -131,-214zm6062 -2548c-107,0 -195,87 -195,195l0 2306 -1856 -2501c-23,0 -308,0 -434,0l-22 0 0 1684 195 0c108,0 195,-87 195,-195l0 -993 1855 2499c23,0 457,0 457,0l0 -2995 -195 0zm3084 0l-1344 0 0 179c0,108 88,195 195,195 378,0 1170,0 1170,0 0,0 0,0 0,0l0 0 0 0c620,0 1123,503 1123,1124 0,620 -503,1123 -1123,1123l-1170 0c-107,0 -195,87 -195,195l0 179 585 0 0 0c793,0 781,1 780,1 827,0 1498,-671 1498,-1499 0,-826 -672,-1508 -1519,-1497zm4983 2995l390 0 0 -1311 1948 0c107,0 195,-87 195,-195l0 -179 -2533 0 0 1685zm195 -2995c-108,0 -195,87 -195,195l0 179 2600 0c107,0 195,-87 195,-195l0 -179 -2600 0zm4349 0l-195 0 0 2800c0,107 87,195 195,195l195 0 0 -2800c0,-108 -88,-195 -195,-195zm3940 1666c381,-82 665,-420 665,-824 0,-466 -377,-843 -843,-843 -9,0 -18,1 -27,1l-1991 0 0 177c0,109 88,197 197,197l1821 0 0 1c258,0 468,209 468,467 0,258 -210,466 -468,466l0 2 -2018 0 0 1684 193 0c109,0 197,-88 197,-197l0 -1113 1386 0 593 1166c46,89 137,145 237,145 94,0 176,0 268,0l-678 -1329zm4776 -1666c-145,0 -282,59 -381,163l-1156 1221 -1156 -1221c-99,-104 -237,-163 -381,-163 -69,0 -135,0 -205,0l0 0 0 74 0 0 0 0 0 0 390 411c0,0 1136,1199 1136,1199 55,0 131,0 206,0 143,0 281,-59 380,-164l974 -1027 0 2307c0,107 87,195 195,195l195 0 7 -2995c-70,0 -135,0 -204,0z"/>
  <path class="fil1" d="M2330 6514l610 0 0 -2053 3043 0c167,0 304,-135 304,-304l0 -280 -3957 0 0 2637zm305 -4684c-168,0 -305,137 -305,305l0 280 7360 0c168,0 305,-137 305,-305l0 -280 -7360 0z"/>
  <path class="fil1" d="M10773 1830l-610 0 0 2047 -8 0 0 1 -3035 0c-168,0 -304,135 -304,304l0 279 3339 0 0 1463 -6642 0c-168,0 -305,137 -305,305l0 280 7260 0c168,0 305,-137 305,-305l0 -247 0 0 0 -2080 0 0 0 -2047z"/>
 </g>
</svg>
