<?xml version="1.0" encoding="UTF-8"?>
<!DOCTYPE svg PUBLIC "-//W3C//DTD SVG 1.1//EN" "http://www.w3.org/Graphics/SVG/1.1/DTD/svg11.dtd">
<!-- Creator: CorelDRAW 2021 (64-Bit) -->
<svg xmlns="http://www.w3.org/2000/svg" xml:space="preserve" width="0.47315in" height="0.262504in" version="1.1" style="shape-rendering:geometricPrecision; text-rendering:geometricPrecision; image-rendering:optimizeQuality; fill-rule:evenodd; clip-rule:evenodd"
viewBox="0 0 471.49 261.58"
 xmlns:xlink="http://www.w3.org/1999/xlink"
 xmlns:xodm="http://www.corel.com/coreldraw/odm/2003">
 <defs>
  <style type="text/css">
   <![CDATA[
    .fil1 {fill:black}
    .fil0 {fill:black;fill-rule:nonzero}
   ]]>
  </style>
 </defs>
 <g id="Layer_x0020_1">
  <metadata id="CorelCorpID_0Corel-Layer"/>
  <g id="_1609544633216">
   <path class="fil0" d="M-0 261.58l34.04 0 0 -114.63 169.93 0c9.38,0 17.02,-7.58 17.02,-17.02l0 -15.59 -220.99 0 0 147.24zm17.02 -261.58c-9.38,0 -17.02,7.64 -17.02,17.01l0 15.65 411 0c9.38,0 17.02,-7.64 17.02,-17.02l0 -15.65 -411 0z"/>
   <path class="fil0" d="M471.48 0l-34.04 0 0 114.34 -169.93 0c-9.38,0 -17.02,7.58 -17.02,17.02l0 15.59 220.99 0 0 -146.95zm-17.02 261.29c9.38,0 17.02,-7.64 17.02,-17.02l0 -15.65 -405.44 0c-9.38,0 -17.02,7.64 -17.02,17.02l0 15.65 405.44 0z"/>
   <rect class="fil1" x="437" y="114.32" width="34.48" height="116.17"/>
  </g>
 </g>
</svg>
